<svg width="746" height="615" viewBox="0 0 746 615" fill="none" xmlns="http://www.w3.org/2000/svg">
<rect width="746" height="615" rx="10" fill="white"/>
<g filter="url(#filter0_d)">
<circle cx="372.5" cy="307.5" r="239.5" fill="white"/>
</g>
<path d="M261.31 350.155C260.02 348.435 259.375 346.285 259.375 343.705C259.375 339.978 261.238 336.825 264.965 334.245C266.972 332.955 269.05 332.31 271.2 332.31C274.21 332.31 277.077 333.672 279.8 336.395C284.1 340.838 288.543 344.135 293.13 346.285C297.86 348.435 303.522 349.51 310.115 349.51C321.295 349.08 326.885 344.852 326.885 336.825C326.885 332.668 324.95 329.515 321.08 327.365C317.353 325.215 311.477 323.065 303.45 320.915C295.137 318.622 288.328 316.328 283.025 314.035C277.865 311.742 273.35 308.302 269.48 303.715C265.753 298.985 263.89 292.678 263.89 284.795C263.89 277.915 265.825 271.967 269.695 266.95C273.708 261.79 278.868 257.848 285.175 255.125C291.625 252.258 298.433 250.825 305.6 250.825C312.91 250.825 320.22 252.187 327.53 254.91C334.84 257.633 340.573 261.647 344.73 266.95C346.593 269.243 347.525 271.823 347.525 274.69C347.525 277.987 346.163 280.71 343.44 282.86C341.433 284.437 339.14 285.225 336.56 285.225C333.407 285.225 330.827 284.222 328.82 282.215C326.24 279.062 322.872 276.553 318.715 274.69C314.702 272.827 310.115 271.895 304.955 271.895C294.062 271.895 288.615 275.837 288.615 283.72C288.615 286.873 289.618 289.453 291.625 291.46C293.632 293.323 296.14 294.828 299.15 295.975C302.303 296.978 306.675 298.268 312.265 299.845C320.005 301.995 326.455 304.217 331.615 306.51C336.775 308.803 341.147 312.315 344.73 317.045C348.313 321.775 350.105 328.01 350.105 335.75C350.105 342.773 348.027 348.937 343.87 354.24C339.713 359.4 334.338 363.342 327.745 366.065C321.295 368.788 314.63 370.15 307.75 370.15C298.29 370.15 289.475 368.573 281.305 365.42C273.135 362.267 266.47 357.178 261.31 350.155ZM428.886 250.825C443.076 250.825 452.894 255.197 458.341 263.94C463.787 272.54 466.511 284.508 466.511 299.845V354.885C466.511 358.612 465.292 361.765 462.856 364.345C460.419 366.782 457.337 368 453.611 368C449.884 368 446.802 366.782 444.366 364.345C441.929 361.765 440.711 358.612 440.711 354.885V299.845C440.711 291.962 439.134 285.798 435.981 281.355C432.971 276.768 427.596 274.475 419.856 274.475C411.829 274.475 405.522 276.912 400.936 281.785C396.492 286.515 394.271 292.535 394.271 299.845V354.885C394.271 358.612 393.052 361.765 390.616 364.345C388.179 366.782 385.097 368 381.371 368C377.644 368 374.562 366.782 372.126 364.345C369.689 361.765 368.471 358.612 368.471 354.885V222.015C368.471 218.288 369.689 215.207 372.126 212.77C374.562 210.19 377.644 208.9 381.371 208.9C385.097 208.9 388.179 210.19 390.616 212.77C393.052 215.207 394.271 218.288 394.271 222.015V269.53C398.141 264.37 403.014 259.998 408.891 256.415C414.911 252.688 421.576 250.825 428.886 250.825Z" fill="url(#paint0_linear)"/>
<defs>
<filter id="filter0_d" x="113" y="48" width="519" height="519" filterUnits="userSpaceOnUse" color-interpolation-filters="sRGB">
<feFlood flood-opacity="0" result="BackgroundImageFix"/>
<feColorMatrix in="SourceAlpha" type="matrix" values="0 0 0 0 0 0 0 0 0 0 0 0 0 0 0 0 0 0 127 0"/>
<feOffset/>
<feGaussianBlur stdDeviation="10"/>
<feColorMatrix type="matrix" values="0 0 0 0 0 0 0 0 0 0 0 0 0 0 0 0 0 0 0.25 0"/>
<feBlend mode="normal" in2="BackgroundImageFix" result="effect1_dropShadow"/>
<feBlend mode="normal" in="SourceGraphic" in2="effect1_dropShadow" result="shape"/>
</filter>
<linearGradient id="paint0_linear" x1="500.32" y1="175.468" x2="387.356" y2="459.211" gradientUnits="userSpaceOnUse">
<stop offset="0.119792" stop-color="#7468FF"/>
<stop offset="0.9999" stop-color="#FF333D" stop-opacity="0.5"/>
<stop offset="1" stop-color="#0A22FF" stop-opacity="0.01"/>
</linearGradient>
</defs>
</svg>
