<svg width="314" height="356" viewBox="0 0 314 356" fill="none" xmlns="http://www.w3.org/2000/svg">
<rect width="314" height="356" rx="33" fill="white"/>
<path d="M65.111 213H51.254V142.32H65.111V213ZM85.3229 141.56C87.3909 141.56 89.1769 142.061 90.6809 143.064C92.1849 144.004 92.9369 145.79 92.9369 148.422C92.9369 150.991 92.1849 152.777 90.6809 153.78C89.1769 154.783 87.3909 155.284 85.3229 155.284C83.1923 155.284 81.3749 154.783 79.8709 153.78C78.4296 152.777 77.7089 150.991 77.7089 148.422C77.7089 145.79 78.4296 144.004 79.8709 143.064C81.3749 142.061 83.1923 141.56 85.3229 141.56ZM92.2789 161.676V213H78.2729V161.676H92.2789ZM150.78 213H137.916V184.776C137.916 180.744 137.212 177.8 135.804 175.944C134.396 174.088 132.444 173.16 129.948 173.16C128.22 173.16 126.46 173.608 124.668 174.504C122.94 175.4 121.372 176.648 119.964 178.248C118.556 179.784 117.532 181.576 116.892 183.624V213H104.028V162.696H115.644V172.008C117.5 168.872 120.188 166.408 123.708 164.616C127.228 162.76 131.196 161.832 135.612 161.832C138.748 161.832 141.308 162.408 143.292 163.56C145.276 164.648 146.812 166.152 147.9 168.072C148.988 169.928 149.724 172.04 150.108 174.408C150.556 176.776 150.78 179.176 150.78 181.608V213ZM194.893 213L180.205 191.304L173.389 198.024V213H160.525V142.92H173.389V185.352L193.645 162.792H207.277L188.557 184.104L208.621 213H194.893Z" fill="#2C2C2C"/>
<path d="M232.401 213.99C225.735 213.99 220.62 211.845 217.056 207.555C213.492 203.265 211.578 197.556 211.314 190.428L211.215 187.161L211.314 183.993C211.512 177.063 213.393 171.42 216.957 167.064C220.587 162.708 225.735 160.53 232.401 160.53C238.803 160.53 243.885 162.708 247.647 167.064V145.086C247.647 144.36 247.878 143.799 248.34 143.403C248.802 142.941 249.363 142.71 250.023 142.71H258.438C259.164 142.71 259.725 142.941 260.121 143.403C260.583 143.799 260.814 144.36 260.814 145.086V210.624C260.814 211.284 260.583 211.845 260.121 212.307C259.725 212.769 259.164 213 258.438 213H250.617C249.957 213 249.396 212.769 248.934 212.307C248.472 211.845 248.241 211.284 248.241 210.624V206.961C244.479 211.647 239.199 213.99 232.401 213.99ZM236.064 203.397C239.892 203.397 242.73 202.176 244.578 199.734C246.426 197.292 247.449 194.289 247.647 190.725C247.713 189.933 247.746 188.646 247.746 186.864C247.746 185.148 247.713 183.894 247.647 183.102C247.515 179.802 246.459 176.997 244.479 174.687C242.565 172.311 239.76 171.123 236.064 171.123C228.936 171.123 225.141 175.512 224.679 184.29L224.58 187.26L224.679 190.23C225.141 199.008 228.936 203.397 236.064 203.397Z" fill="url(#paint0_linear)"/>
<defs>
<linearGradient id="paint0_linear" x1="276.809" y1="133.282" x2="243.39" y2="291.277" gradientUnits="userSpaceOnUse">
<stop offset="0.119792" stop-color="#7468FF"/>
<stop offset="0.9999" stop-color="#FF333D" stop-opacity="0.5"/>
<stop offset="1" stop-color="#0A22FF" stop-opacity="0.01"/>
</linearGradient>
</defs>
</svg>
