<svg width="314" height="356" viewBox="0 0 314 356" fill="none" xmlns="http://www.w3.org/2000/svg">
<rect width="314" height="356" rx="10" fill="white"/>
<path d="M68.12 219.06C67.04 217.62 66.5 215.82 66.5 213.66C66.5 210.54 68.06 207.9 71.18 205.74C72.86 204.66 74.6 204.12 76.4 204.12C78.92 204.12 81.32 205.26 83.6 207.54C87.2 211.26 90.92 214.02 94.76 215.82C98.72 217.62 103.46 218.52 108.98 218.52C118.34 218.16 123.02 214.62 123.02 207.9C123.02 204.42 121.4 201.78 118.16 199.98C115.04 198.18 110.12 196.38 103.4 194.58C96.44 192.66 90.74 190.74 86.3 188.82C81.98 186.9 78.2 184.02 74.96 180.18C71.84 176.22 70.28 170.94 70.28 164.34C70.28 158.58 71.9 153.6 75.14 149.4C78.5 145.08 82.82 141.78 88.1 139.5C93.5 137.1 99.2 135.9 105.2 135.9C111.32 135.9 117.44 137.04 123.56 139.32C129.68 141.6 134.48 144.96 137.96 149.4C139.52 151.32 140.3 153.48 140.3 155.88C140.3 158.64 139.16 160.92 136.88 162.72C135.2 164.04 133.28 164.7 131.12 164.7C128.48 164.7 126.32 163.86 124.64 162.18C122.48 159.54 119.66 157.44 116.18 155.88C112.82 154.32 108.98 153.54 104.66 153.54C95.54 153.54 90.98 156.84 90.98 163.44C90.98 166.08 91.82 168.24 93.5 169.92C95.18 171.48 97.28 172.74 99.8 173.7C102.44 174.54 106.1 175.62 110.78 176.94C117.26 178.74 122.66 180.6 126.98 182.52C131.3 184.44 134.96 187.38 137.96 191.34C140.96 195.3 142.46 200.52 142.46 207C142.46 212.88 140.72 218.04 137.24 222.48C133.76 226.8 129.26 230.1 123.74 232.38C118.34 234.66 112.76 235.8 107 235.8C99.08 235.8 91.7 234.48 84.86 231.84C78.02 229.2 72.44 224.94 68.12 219.06ZM208.416 135.9C220.296 135.9 228.516 139.56 233.076 146.88C237.636 154.08 239.916 164.1 239.916 176.94V223.02C239.916 226.14 238.896 228.78 236.856 230.94C234.816 232.98 232.236 234 229.116 234C225.996 234 223.416 232.98 221.376 230.94C219.336 228.78 218.316 226.14 218.316 223.02V176.94C218.316 170.34 216.996 165.18 214.356 161.46C211.836 157.62 207.336 155.7 200.856 155.7C194.136 155.7 188.856 157.74 185.016 161.82C181.296 165.78 179.436 170.82 179.436 176.94V223.02C179.436 226.14 178.416 228.78 176.376 230.94C174.336 232.98 171.756 234 168.636 234C165.516 234 162.936 232.98 160.896 230.94C158.856 228.78 157.836 226.14 157.836 223.02V111.78C157.836 108.66 158.856 106.08 160.896 104.04C162.936 101.88 165.516 100.8 168.636 100.8C171.756 100.8 174.336 101.88 176.376 104.04C178.416 106.08 179.436 108.66 179.436 111.78V151.56C182.676 147.24 186.756 143.58 191.676 140.58C196.716 137.46 202.296 135.9 208.416 135.9Z" fill="url(#paint0_linear)"/>
<defs>
<linearGradient id="paint0_linear" x1="259.472" y1="72.5143" x2="164.525" y2="304.534" gradientUnits="userSpaceOnUse">
<stop offset="0.119792" stop-color="#7468FF"/>
<stop offset="0.9999" stop-color="#FF333D" stop-opacity="0.5"/>
<stop offset="1" stop-color="#0A22FF" stop-opacity="0.01"/>
</linearGradient>
</defs>
</svg>
