<svg width="180" height="180" viewBox="0 0 180 180" fill="none" xmlns="http://www.w3.org/2000/svg">
<rect width="180" height="180" rx="10" fill="white"/>
<path d="M72.891 77.3398H82.9062C82.7099 67.6332 74.4339 60.7599 62.2024 60.7599C50.1392 60.7599 41.0778 67.549 41.1058 77.7045C41.1058 85.9524 46.9691 90.6935 56.4233 93.1342L62.9599 94.8175C69.1598 96.3885 73.2557 98.3242 73.2837 102.785C73.2557 107.694 68.5987 110.977 61.8097 110.977C55.3011 110.977 50.2514 108.059 49.8306 102.027H39.5909C40.0117 113.445 48.5121 119.87 61.8938 119.87C75.6683 119.87 83.6637 112.996 83.6918 102.869C83.6637 92.9098 75.4439 88.3651 66.8033 86.3171L61.4169 84.9705C56.7038 83.8484 51.598 81.8565 51.6541 77.0593C51.6822 72.739 55.5536 69.5689 62.0621 69.5689C68.2621 69.5689 72.358 72.4584 72.891 77.3398ZM89.4156 119H99.8236V94.593H126.447V119H136.883V61.5455H126.447V85.8683H99.8236V61.5455H89.4156V119Z" fill="black"/>
</svg>
