<svg width="437" height="447" viewBox="0 0 437 447" fill="none" xmlns="http://www.w3.org/2000/svg">
<path d="M286.555 299.832L366.783 408.811C372.913 417.138 371.132 428.857 362.806 434.986V434.986C354.479 441.116 342.76 439.335 336.631 431.009L256.403 322.029L286.555 299.832Z" fill="#FFA5B0"/>
<path d="M286.34 282.757L379.644 409.5C385.774 417.826 383.993 429.545 375.667 435.675V435.675C367.34 441.804 355.622 440.023 349.492 431.697L256.187 304.954L286.34 282.757Z" fill="#5145DC"/>
<circle cx="209.882" cy="209.882" r="171.368" transform="rotate(-75 209.882 209.882)" fill="#FFA5B0"/>
<circle cx="226.006" cy="216.624" r="172.276" transform="rotate(-75 226.006 216.624)" fill="#5145DC"/>
<circle cx="225.78" cy="216.398" r="148.601" transform="rotate(-75 225.78 216.398)" fill="#231E56"/>
<circle cx="270.437" cy="102.199" r="12.7674" transform="rotate(-75 270.437 102.199)" fill="white"/>
<circle cx="297.267" cy="117.859" r="9.02459" transform="rotate(-75 297.267 117.859)" fill="white"/>
</svg>
