<svg width="1258" height="501" viewBox="0 0 1258 501" fill="none" xmlns="http://www.w3.org/2000/svg">
<path d="M113.76 340.88C85.92 340.88 64.224 333.104 48.672 317.552C33.12 301.808 25.344 279.344 25.344 250.16V136.4H62.784V248.72C62.784 288.272 79.872 308.048 114.048 308.048C148.032 308.048 165.024 288.272 165.024 248.72V136.4H201.888V250.16C201.888 279.344 194.112 301.808 178.56 317.552C163.2 333.104 141.6 340.88 113.76 340.88ZM316.53 182.48C335.922 182.48 351.474 188.144 363.186 199.472C374.898 210.8 380.754 227.6 380.754 249.872V338H344.754V254.48C344.754 241.04 341.586 230.96 335.25 224.24C328.914 217.328 319.89 213.872 308.178 213.872C294.93 213.872 284.466 217.904 276.786 225.968C269.106 233.84 265.266 245.264 265.266 260.24V338H229.266V184.208H263.538V204.08C269.49 196.976 276.978 191.6 286.002 187.952C295.026 184.304 305.202 182.48 316.53 182.48ZM546.01 184.208L474.01 350.384C467.29 367.088 459.13 378.8 449.53 385.52C439.93 392.432 428.314 395.888 414.682 395.888C407.002 395.888 399.418 394.64 391.93 392.144C384.442 389.648 378.298 386.192 373.498 381.776L387.898 355.28C391.354 358.544 395.386 361.136 399.994 363.056C404.794 364.976 409.594 365.936 414.394 365.936C420.73 365.936 425.914 364.304 429.946 361.04C434.17 357.776 438.01 352.304 441.466 344.624L444.058 338.576L376.954 184.208H414.394L462.778 297.968L511.45 184.208H546.01ZM611.811 340.016C596.259 340.016 582.243 336.656 569.763 329.936C557.283 323.216 547.491 313.904 540.387 302C533.475 289.904 530.019 276.272 530.019 261.104C530.019 245.936 533.475 232.4 540.387 220.496C547.491 208.592 557.283 199.28 569.763 192.56C582.243 185.84 596.259 182.48 611.811 182.48C627.555 182.48 641.667 185.84 654.147 192.56C666.627 199.28 676.323 208.592 683.235 220.496C690.339 232.4 693.891 245.936 693.891 261.104C693.891 276.272 690.339 289.904 683.235 302C676.323 313.904 666.627 323.216 654.147 329.936C641.667 336.656 627.555 340.016 611.811 340.016ZM611.811 309.2C625.059 309.2 636.003 304.784 644.643 295.952C653.283 287.12 657.603 275.504 657.603 261.104C657.603 246.704 653.283 235.088 644.643 226.256C636.003 217.424 625.059 213.008 611.811 213.008C598.563 213.008 587.619 217.424 578.979 226.256C570.531 235.088 566.307 246.704 566.307 261.104C566.307 275.504 570.531 287.12 578.979 295.952C587.619 304.784 598.563 309.2 611.811 309.2ZM769.5 272.048L742.716 297.392V338H706.716V124.304H742.716V253.328L817.308 184.208H860.508L796.284 248.72L866.556 338H822.78L769.5 272.048ZM1006.32 261.968C1006.32 264.464 1006.13 268.016 1005.74 272.624H885.069C887.181 283.952 892.653 292.976 901.485 299.696C910.509 306.224 921.645 309.488 934.893 309.488C951.789 309.488 965.709 303.92 976.653 292.784L995.949 314.96C989.037 323.216 980.301 329.456 969.741 333.68C959.181 337.904 947.277 340.016 934.029 340.016C917.133 340.016 902.253 336.656 889.389 329.936C876.525 323.216 866.541 313.904 859.437 302C852.525 289.904 849.069 276.272 849.069 261.104C849.069 246.128 852.429 232.688 859.149 220.784C866.061 208.688 875.565 199.28 887.661 192.56C899.757 185.84 913.389 182.48 928.557 182.48C943.533 182.48 956.877 185.84 968.589 192.56C980.493 199.088 989.709 208.4 996.237 220.496C1002.96 232.4 1006.32 246.224 1006.32 261.968ZM928.557 211.28C917.037 211.28 907.245 214.736 899.181 221.648C891.309 228.368 886.509 237.392 884.781 248.72H972.045C970.509 237.584 965.805 228.56 957.933 221.648C950.061 214.736 940.269 211.28 928.557 211.28ZM1169.92 124.304V338H1135.36V318.128C1129.41 325.424 1122.02 330.896 1113.19 334.544C1104.55 338.192 1094.95 340.016 1084.39 340.016C1069.6 340.016 1056.26 336.752 1044.35 330.224C1032.64 323.696 1023.43 314.48 1016.71 302.576C1009.99 290.48 1006.63 276.656 1006.63 261.104C1006.63 245.552 1009.99 231.824 1016.71 219.92C1023.43 208.016 1032.64 198.8 1044.35 192.272C1056.26 185.744 1069.6 182.48 1084.39 182.48C1094.56 182.48 1103.87 184.208 1112.32 187.664C1120.77 191.12 1127.97 196.304 1133.92 203.216V124.304H1169.92ZM1088.71 309.2C1097.35 309.2 1105.12 307.28 1112.03 303.44C1118.95 299.408 1124.42 293.744 1128.45 286.448C1132.48 279.152 1134.5 270.704 1134.5 261.104C1134.5 251.504 1132.48 243.056 1128.45 235.76C1124.42 228.464 1118.95 222.896 1112.03 219.056C1105.12 215.024 1097.35 213.008 1088.71 213.008C1080.07 213.008 1072.29 215.024 1065.38 219.056C1058.47 222.896 1052.99 228.464 1048.96 235.76C1044.93 243.056 1042.91 251.504 1042.91 261.104C1042.91 270.704 1044.93 279.152 1048.96 286.448C1052.99 293.744 1058.47 299.408 1065.38 303.44C1072.29 307.28 1080.07 309.2 1088.71 309.2Z" fill="white"/>
<path d="M1214.38 340.443C1206.47 340.443 1199.72 337.767 1194.14 332.416C1188.55 326.832 1185.76 319.852 1185.76 311.476C1185.76 302.867 1188.44 295.887 1193.79 290.536C1199.37 285.185 1206.23 282.509 1214.38 282.509C1222.52 282.509 1229.27 285.185 1234.62 290.536C1240.2 295.887 1243 302.867 1243 311.476C1243 319.852 1240.2 326.832 1234.62 332.416C1229.04 337.767 1222.29 340.443 1214.38 340.443Z" fill="#F0D800"/>
</svg>
